<?xml version="1.0" encoding="utf-8"?>
<!-- Generator: Adobe Illustrator 24.1.0, SVG Export Plug-In . SVG Version: 6.00 Build 0)  -->
<svg version="1.1" id="Layer_1" xmlns="http://www.w3.org/2000/svg" xmlns:xlink="http://www.w3.org/1999/xlink" x="0px" y="0px"
	 viewBox="0 0 14666.9 6200.5" style="enable-background:new 0 0 14666.9 6200.5;" xml:space="preserve">
<style type="text/css">
	.st0{fill:#FC8E04;}
	.st1{fill:none;stroke:#DBDBDB;stroke-width:387.5894;stroke-miterlimit:10;}
	.st2{fill:#7E7E7E;}
	.st3{fill:#FFFFFF;}
</style>
<path class="st0" d="M5237.1,3297.5c71.2,1487.6-2536.3,1487.6-2465.1,0C2700.9,1810,5308.4,1810,5237.1,3297.5z M3132.4,3297.5
	c-69.5,1114.7,1813.9,1114.7,1744.4,0C4946.3,2182.8,3062.9,2182.9,3132.4,3297.5z"/>
<g>
	<path class="st0" d="M4004.6,2568.5c365.7,0,731.3,243,739.5,729c-8.3,486-373.9,729-739.5,729c-365.7,0-731.3-243-739.5-729
		C3273.4,2811.5,3639,2568.5,4004.6,2568.5 M4004.7,2084v484.5V2084L4004.7,2084h-0.1c-72.6,0-145.7,6.1-217,18.2
		c-72.7,12.3-144.5,30.8-213.2,55.2c-71.2,25.2-140.1,56.9-204.6,94.2c-67.5,39-131,84.5-188.8,135.4
		c-60.4,53.2-115.4,112.7-163.2,177.1c-49.5,66.5-92,138.9-126.5,215.1c-70.2,155.4-107.4,327.1-110.5,510.1l-0.1,8.2l0.1,8.2
		c3.1,183,40.3,354.7,110.5,510.1c34.4,76.3,77,148.7,126.5,215.1c47.9,64.3,102.8,123.9,163.3,177.1
		c57.8,50.9,121.4,96.4,188.9,135.4c64.5,37.3,133.4,69,204.6,94.2c68.8,24.3,140.5,42.9,213.3,55.2c71.4,12,144.4,18.1,217,18.1
		c72.7,0,145.7-6.1,217-18.1c72.7-12.3,144.5-30.8,213.3-55.2c71.2-25.2,140.1-56.9,204.6-94.2c67.5-39,131-84.6,188.8-135.4
		c60.4-53.2,115.4-112.7,163.2-177.1c49.5-66.5,92-138.9,126.5-215.1c70.2-155.4,107.4-327.1,110.5-510.1l0.1-8.2l-0.1-8.2
		c-3.1-183-40.3-354.6-110.4-510.1c-34.4-76.3-77-148.6-126.4-215.1c-47.9-64.3-102.8-123.9-163.2-177.1
		c-57.8-50.9-121.4-96.4-188.8-135.4c-64.5-37.3-133.4-69-204.6-94.2c-68.8-24.3-140.5-42.9-213.3-55.2
		C4150.4,2090.1,4077.4,2084,4004.7,2084L4004.7,2084z"/>
</g>
<path class="st1" d="M5720.7,3297.5c-38.5,2255.8-3394,2255.4-3432.2-0.1C2327.1,1041.7,5682.5,1042.1,5720.7,3297.5z"/>
<path class="st1" d="M6332.8,3297.5c-52.3,3060.4-4604.6,3059.9-4656.4-0.1C1728.7,237.1,6281,237.6,6332.8,3297.5z"/>
<g>
	<path class="st2" d="M1609.6,4416.3v-98.4h24.2c47,0,55.9-6.3,57.1-7.4c0.1-0.4,0.6-1.9,0.6-5.7c-0.3-2.5-3.7-13.1-16.5-32.7
		l-0.2-0.3L1178,3467.4H462.3v774.8c0,55.9,19.4,75.7,74,75.7h24.2v98.4h-589v-98.4h24.2c54.7,0,74-19.8,74-75.7V2352.8
		c0-55.9-19.4-75.7-74-75.7h-24.2v-98.4h1396c135.5,0,254.2,13.5,352.7,40.2c98.3,26.6,180.5,67.3,244.3,121.1
		c62.9,52.9,110.3,120.3,140.8,200.2c29.2,76.5,43.9,167.4,43.9,270.4c0,88.6-11.6,169.2-34.4,239.4
		c-23.7,72.9-60.2,137-108.5,190.4c-49.4,54.6-112.4,99.5-187.4,133.6c-66.4,30.2-143.9,52.6-230.8,66.8l495.8,779.9
		c54.9,83.7,68.9,97.1,139.4,97.1h24.2v98.4H1609.6z M1334.9,3136c152.9,0,265.9-30.4,335.9-90.4c63.5-54.5,94.4-134.1,94.4-243.3
		c0-110.6-25.4-176.3-84.8-219.7c-67.5-49.3-183.8-72.3-366-72.3H462.3V3136H1334.9z"/>
	<path class="st3" d="M1367.6,2203c540.5,0,757.5,212.3,757.5,607.6c0,341.3-172,557.7-577.4,611.8l515.9,811.5
		c57.3,87.4,77.8,108.2,159.7,108.2v49.9h-589.7v-49.9c69.6,0,81.9-12.5,81.9-37.5c0-12.5-12.3-33.3-20.5-45.8l-503.7-815.7H438.1
		v799.1c0,58.3,20.5,99.9,98.3,99.9v49.9H-4.1v-49.9c77.8,0,98.3-41.6,98.3-99.9V2352.8c0-58.3-20.5-99.9-98.3-99.9V2203H1367.6
		 M438.1,3160.2h896.8c331.7,0,454.5-137.3,454.5-357.9c0-216.4-94.2-316.3-475-316.3H438.1V3160.2 M1367.6,2154.5H-4.1h-48.4v48.4
		v49.9v48.4h48.4c12,0,33.3,1.4,41.2,10.8c3.9,4.7,8.6,15.5,8.6,40.6v1889.4c0,25.1-4.7,36-8.6,40.6c-3.4,4-13.2,10.8-41.2,10.8
		h-48.4v48.4v49.9v48.4h48.4h540.5h48.4v-48.4v-49.9v-48.4h-48.4c-12,0-33.3-1.4-41.2-10.8c-3.9-4.7-8.6-15.5-8.6-40.7v-750.6h678
		l489.5,792.7l0.3,0.6l0.4,0.6c1.8,2.7,3.3,5.1,4.7,7.4c-6.4,0.5-14.7,0.8-25.6,0.8h-48.4v48.4v49.9v48.4h48.4h589.7h48.4v-48.4
		v-49.9v-48.4h-48.4c-56.3,0-64.4-2.8-119-86.1l-476.4-749.3c25.5-5,50.1-10.7,73.6-17c45.6-12.3,88.5-27.6,127.4-45.3
		c39-17.7,75.3-38.5,107.7-61.6c32.4-23.1,61.9-49.3,87.7-77.8c25.5-28.2,48.1-59.5,67.1-92.9c18.6-32.8,34.3-68.6,46.5-106.3
		c12-36.8,21-76.5,26.9-118.1c5.7-40.5,8.7-83.8,8.7-128.9c0-52.2-3.7-101.8-11-147.3c-7.5-47.1-19.2-91.4-34.5-131.7
		c-15.8-41.5-36.2-80.2-60.4-114.8c-24.7-35.2-54.1-67.3-87.4-95.4c-33.4-28.1-71.7-53-113.9-73.9c-41.9-20.8-88.9-38.3-139.7-52
		c-50.5-13.7-106.3-24-165.8-30.8C1501.5,2158,1436.5,2154.5,1367.6,2154.5L1367.6,2154.5z M486.5,2534.4h827.8
		c176.8,0,288.6,21.5,351.7,67.7c52.5,38.4,74.8,98.2,74.8,200.2c0,101.7-28.1,175.3-86,224.9c-65.4,56.1-173.1,84.6-320.1,84.6
		H486.5V2534.4L486.5,2534.4z"/>
</g>
<g>
	<path class="st2" d="M7919.5,4416.3v-98.4h24.2c36.3,0,49.6-4.9,54.3-7.8c2.1-1.3,3.4-2.1,3.4-9.6c0-22.9-15.2-60.8-28.5-94.3
		c-5.5-13.7-10.6-26.6-15.1-39.1l-529.7-1462.5L6897.7,4209c-1.1,3.1-2.3,6.1-3.4,9.1c-10.6,28.3-19.7,52.7-19.7,82.4
		c0,1.1,0,4.5,8.1,8.7c6.1,3.2,20.7,8.7,49.6,8.7h24.2v98.4h-629.9v-98.4h24.2c37.5,0,50.8-3.5,55.4-6.5c0.6-0.4,2.2-1.4,2.2-15
		c0-28-14.2-70-25.6-103.7c-2.1-6.1-4-11.8-5.8-17.3L5722,2402.5l-0.1-0.3c-16.8-49.1-32-79.4-49.2-98.1c-17.2-18.7-37.9-27-67.1-27
		h-24.2v-98.4h584.9v98.4H6142c-33.9,0-49.2,6.5-56.1,11.9c-4.5,3.6-9.7,9.8-9.7,26.3c0,17.9,10.9,43.1,23.6,72.3
		c6.2,14.4,13.3,30.8,19.9,48.2l533.7,1454.5l530.4-1532.7c7.3-22.3,11-40.7,11-54.7c0-15.3-4.4-18.7-5.8-19.7
		c-3.6-2.7-11.9-6-31.4-6h-24.2v-98.4H7751v98.4h-24.2c-20.5,0-34.6,2.4-41.7,7.3c-2.3,1.6-7.8,5.3-7.8,22.6
		c0,16.7,10.5,43.5,21.6,71.9c4.6,11.7,9.3,23.9,13.9,36.5l513.7,1425.7l525.7-1446.3c3.4-10.3,6.8-19.5,9.8-27.6
		c8.1-21.7,13.4-36,13.4-56c0-19.1-28.9-34-65.9-34h-24.2v-98.4h564.4v98.4h-24.2c-51,0-70.8,15.7-112.4,125.7l-642.8,1764.3
		c-7.8,22.3-15,40.8-21.5,57.1c-13.4,33.9-22.2,56.3-22.2,80.4c0,5.9,0.5,6.2,3.6,7.5c12.7,5.7,43.9,5.7,54.1,5.7h24.2v98.4H7919.5z
		"/>
	<path class="st3" d="M9225.4,2203v49.9c-69.6,0-94.2,33.3-135.1,141.5L8447.4,4159c-24.6,70.8-45,104-45,145.7
		c0,29.1,20.5,37.5,81.9,37.5v49.9h-540.5v-49.9c69.6,0,81.9-16.6,81.9-41.6c0-37.5-28.7-95.7-45-141.5l-548.7-1514.9h-8.2
		L6875,4200.6c-12.3,33.3-24.6,62.4-24.6,99.9c0,25,28.7,41.6,81.9,41.6v49.9h-581.5v-49.9c73.7,0,81.9-12.5,81.9-45.8
		c0-37.5-20.5-91.6-32.8-129l-655.2-1772.9c-32.8-95.7-65.5-141.5-139.2-141.5V2203H6142v49.9c-69.6,0-90.1,25-90.1,62.4
		c0,33.3,24.6,74.9,45,129l552.8,1506.6h8.2l548.7-1585.6c8.2-25,12.3-45.8,12.3-62.4c0-37.5-20.5-49.9-61.4-49.9V2203h569.2v49.9
		c-49.1,0-73.7,12.5-73.7,54.1c0,29.1,20.5,70.8,36.9,116.5L8222.2,3901h8.2L8775,2402.7c12.3-37.5,24.6-58.3,24.6-91.6
		c0-33.3-36.9-58.3-90.1-58.3V2203H9225.4 M9273.9,2154.5h-48.4h-515.9H8661v48.4v49.9v48.4h48.4c24.9,0,38.4,7.6,41.6,11.2
		c-0.2,14.3-4.1,25.3-11.9,46.1c-3.1,8.2-6.5,17.5-10,28.2l-502.7,1383l-491-1362.8c-4.6-12.9-9.4-25.2-14.1-37.1
		c-9.3-23.9-19.9-50.9-19.9-63c0-1.4,0.1-2.5,0.1-3.5c3.8-1,11.3-2.2,25.1-2.2h48.4v-48.4V2203v-48.4h-48.4h-569.2h-48.4v48.4v49.9
		v48.4h48.4c6,0,10.1,0.4,13,0.8c0,0.2,0,0.5,0,0.7c0,7.8-1.7,22.3-9.8,47l-508.1,1468.3l-510.2-1390.4l-0.1-0.2l-0.1-0.2
		c-6.8-17.9-14-34.6-20.3-49.2c-10.6-24.5-21.6-49.8-21.6-62.6c0-4.4,0.5-6.6,0.8-7.4c1.8-1.2,11.5-6.6,40.9-6.6h48.4v-48.4V2203
		v-48.4H6142h-536.4h-48.4v48.4v49.9v48.4h48.4c27.8,0,40.1,9.2,49.3,19.2c14.8,16.1,28.4,43.8,44.1,89.6l0.2,0.6l0.2,0.6
		l654.9,1772.1c1.8,5.5,3.7,11.1,5.7,17.1c9.7,28.7,22.8,67.4,24.2,91.9c-6.6,0.8-17.1,1.5-33.3,1.5h-48.4v48.4v49.9v48.4h48.4
		h581.5h48.4v-48.4v-49.9v-48.4h-48.4c-16.2,0-26.8-1.9-33-3.8c1.9-20.9,9-40,17.7-63.3c1.1-3,2.3-6.1,3.4-9.2l0.1-0.3l0.1-0.3
		l507.7-1440.1L7935,4175.5c4.6,12.9,10.1,26.5,15.4,39.8c9.7,24.3,22.5,56.3,25.9,76.4c-6.4,1.1-16.7,2.1-32.6,2.1h-48.4v48.4v49.9
		v48.4h48.4h540.5h48.4v-48.4v-49.9v-48.4h-48.4c-15.5,0-25.8-0.6-32.5-1.4c2.3-15,8.7-31.8,19.5-59.2c6.5-16.5,13.8-35.2,21.7-57.9
		l642.7-1764c14.8-39,30.7-77.5,47.2-95.5c7.2-7.9,15.4-14.4,42.5-14.4h48.4v-48.4V2203V2154.5L9273.9,2154.5z"/>
</g>
<g>
	<path class="st2" d="M10986.5,4416.3v-98.4h24.2c31.6,0,44.8-5.3,50.3-9.7c3.6-2.9,7.3-8.1,7.3-24.3c0-17.8-6.2-32.2-43.8-115.4
		l-7.2-16l-149-318.8H9741.1l-133,318c-5.5,13.3-11.9,27.6-18.6,42.8c-15.5,34.8-36.8,82.4-36.8,101.9c0,9,3.1,11.9,6,13.9
		c4.1,2.9,14.7,7.7,39.4,7.7h24.2v98.4h-552.1v-98.4h24.2c53.6,0,64.7,0,145.8-181.3l741.1-1681.1c14.2-33.1,26.4-59.4,36.3-80.6
		c17-36.4,27.2-58.3,27.2-72.1c0-7.9-18.7-25.7-49.5-25.7H9971v-98.4h646.3v98.4h-24.2c-23.7,0-32.7,4.4-35.9,7.1
		c-1.5,1.2-5.4,4.4-5.4,18.7c0,18.7,15.4,49.8,38.6,96.9c9.6,19.5,20.5,41.6,32.8,67.6l786.2,1656.3l5.5,11.3
		c42.9,89.1,66.5,138.2,88.1,161.6c17.1,18.5,32.6,21.3,77,21.3h24.2v98.4H10986.5z M10706.4,3510.5l-423.6-899.2l-389.9,899.2
		H10706.4z"/>
	<path class="st3" d="M10593,2203v49.9c-49.1,0-65.5,16.6-65.5,49.9c0,33.3,28.7,79.1,73.7,174.8l786.2,1656.4
		c94.2,195.6,98.3,208.1,192.5,208.1v49.9h-569.2v-49.9c65.5,0,81.9-20.8,81.9-58.3c0-25-8.2-41.6-53.2-141.5l-155.6-332.9H9724.9
		l-139.2,332.9c-20.5,49.9-57.3,120.7-57.3,154c0,29.1,20.5,45.8,69.6,45.8v49.9h-503.7v-49.9c69.6,0,86-12.5,167.9-195.6
		l741.2-1681.4c40.9-95.7,65.5-133.2,65.5-162.3c0-25-32.8-49.9-73.7-49.9V2203H10593 M9856,3534.7h888.6l-462.7-982.2L9856,3534.7
		 M10641.5,2154.5h-48.4h-597.8h-48.4v48.4v49.9v48.4h48.4c11.7,0,20.1,3.8,24.3,6.7c-0.6,2.5-1.7,5.9-3.5,10.6
		c-4.4,11.5-11.5,26.7-20.5,46c-9.9,21.3-22.3,47.7-36.6,81.2l-741,1680.9c-35.2,78.7-60.9,131.9-80.6,154.1
		c-9,10.1-12.6,12.8-43.1,12.8h-48.4v48.4v49.9v48.4h48.4H9598h48.4v-48.4v-49.9v-48.4H9598c-10,0-16.6-0.9-20.5-1.8
		c0.9-4.7,3.2-13.4,8.9-28.5c6.9-18.1,16.2-39,25.2-59.1c6.8-15.3,13.3-29.8,18.9-43.4l126.7-303h1095.7l142.4,304.7
		c2.5,5.5,4.9,10.8,7.2,15.9c35.9,79.5,41.7,93.2,41.7,105.4c0,2.8-0.1,4.8-0.3,6.2c-3.9,1.4-13.3,3.6-33.1,3.6h-48.4v48.4v49.9
		v48.4h48.4h569.2h48.4v-48.4v-49.9v-48.4h-48.4c-44.4,0-49.9-3.5-59.2-13.5c-19.2-20.8-43.6-71.5-84.1-155.7l-5.4-11.3
		L10645,2456.9c-12.3-26.1-23.2-48.3-32.9-67.8c-12.5-25.4-22.4-45.4-28.8-61.1c-6.4-15.6-7.3-22.4-7.3-25.1c0-0.1,0-0.2,0-0.3
		c3.4-0.6,8.8-1.2,17.1-1.2h48.4v-48.4V2203V2154.5L10641.5,2154.5z M9929.8,3486.3l353.9-816.2l384.5,816.2H9929.8L9929.8,3486.3z"
		/>
</g>
<g>
	<path class="st2" d="M12022.4,4416.3v-98.4h24.2c54.7,0,74.1-19.8,74.1-75.7V2352.8c0-55.9-19.4-75.7-74.1-75.7h-24.2v-98.4h1293.6
		c167.4,0,323.4,28,463.6,83.2c136.1,53.6,255.3,131.8,354.2,232.6c97.7,99.6,173.5,219,225.2,354.8
		c52.2,137.1,78.6,287.9,78.6,448.3c0,161.7-22.6,312.2-67.3,447.3c-45.2,136.8-112.5,256.2-199.9,354.9
		c-89.9,101.4-200.3,179.9-328.2,233.3c-132.5,55.3-283.4,83.3-448.5,83.3H12022.4z M13357,4093.2c455.6,0,696.5-275.1,696.5-795.7
		c0-513.1-273.5-795.6-770.2-795.6h-770.2v1591.3H13357z"/>
	<path class="st3" d="M13316.1,2203c671.5,0,1097.4,457.8,1097.4,1094.5c0,636.8-356.2,1094.6-1019.6,1094.6h-1347.2v-49.9
		c77.8,0,98.3-41.6,98.3-99.9V2352.8c0-58.3-20.5-99.9-98.3-99.9V2203H13316.1 M12488.9,4117.4h868.1c475,0,720.7-287.2,720.7-819.9
		c0-532.7-294.8-819.9-794.4-819.9h-794.4V4117.4 M13316.1,2154.5h-1269.4h-48.4v48.4v49.9v48.4h48.4c12,0,33.3,1.4,41.2,10.8
		c3.9,4.7,8.6,15.5,8.6,40.6v1889.4c0,25.1-4.7,36-8.6,40.6c-3.4,4-13.2,10.8-41.2,10.8h-48.4v48.4v49.9v48.4h48.4h1347.2
		c168.3,0,322.3-28.7,457.8-85.2c131.3-54.8,244.6-135.4,337-239.6c89.6-101.1,158.5-223.4,204.8-363.3
		c45.4-137.5,68.5-290.6,68.5-454.9c0-163.3-27-317.1-80.2-456.9c-52.9-138.9-130.4-261.1-230.5-363.1
		c-101.3-103.2-223.3-183.3-362.6-238.2C13645.5,2183.1,13486.5,2154.5,13316.1,2154.5L13316.1,2154.5z M12537.4,2526.1h745.9
		c481,0,745.9,274,745.9,771.4c0,254-57.3,448.4-170.3,577.8c-112.1,128.5-281,193.6-502,193.6h-819.6V2526.1L12537.4,2526.1z"/>
</g>
</svg>
