<?xml version="1.0" encoding="utf-8"?>
<!-- Generator: Adobe Illustrator 24.1.0, SVG Export Plug-In . SVG Version: 6.00 Build 0)  -->
<svg version="1.1" id="Layer_1" xmlns="http://www.w3.org/2000/svg" xmlns:xlink="http://www.w3.org/1999/xlink" x="0px" y="0px"
	 viewBox="0 0 250 250" style="enable-background:new 0 0 250 250;" xml:space="preserve">
<style type="text/css">
	.st0{fill:#FC8E04;}
	.st1{fill:#7E7E7E;}
</style>
<g>
	<path class="st0" d="M124.5,250.5L124.5,250.5c69,0,125-56,125-125v-1c0-69-56-125-125-125h0c-69,0-125,56-125,125v1
		C-0.5,194.5,55.5,250.5,124.5,250.5z"/>
</g>
<g>
	<path class="st1" d="M73.8,197c0,4.4,1.6,7.6,7.5,7.6v3.8H40.1v-3.8c5.9,0,7.5-3.2,7.5-7.6V53c0-4.4-1.6-7.6-7.5-7.6v-3.8h104.6
		c41.2,0,57.7,16.2,57.7,46.3c0,26-13.1,42.5-44,46.6l39.3,61.9c4.4,6.7,5.9,8.2,12.2,8.2v3.8h-45v-3.8c5.3,0,6.2-1,6.2-2.9
		c0-1-0.9-2.5-1.6-3.5l-38.4-62.2H73.8V197z M73.8,114.5h68.4c25.3,0,34.6-10.5,34.6-27.3c0-16.5-7.2-24.1-36.2-24.1H73.8V114.5z"/>
</g>
</svg>
